<?xml version="1.0" standalone="no"?>
<!DOCTYPE svg PUBLIC "-//W3C//DTD SVG 20010904//EN"
 "http://www.w3.org/TR/2001/REC-SVG-20010904/DTD/svg10.dtd">
<svg version="1.0" xmlns="http://www.w3.org/2000/svg"
 width="750.000000pt" height="750.000000pt" viewBox="0 0 750.000000 750.000000"
 preserveAspectRatio="xMidYMid meet">
<metadata>
Created by potrace 1.14, written by Peter Selinger 2001-2017
</metadata>
<g transform="translate(0.000000,750.000000) scale(0.100000,-0.100000)"
fill="#000000" stroke="none">
<path d="M5 4528 c2 -1123 5 -2393 7 -2821 l2 -777 666 5 c366 3 901 7 1190
10 1681 13 2420 20 4020 40 541 7 1098 13 1214 14 44 1 77 4 73 7 -3 3 -1594
7 -3536 8 -1941 1 -3533 4 -3536 8 -6 6 -8 5439 -2 5445 5 4 7319 5 7323 0 2
-2 4 -1154 4 -2560 1 -1406 4 -2557 8 -2557 4 0 8 69 8 153 1 83 4 377 8 652
3 275 9 676 11 890 3 215 8 541 10 725 9 594 17 1459 18 2125 l2 649 -335 3
c-1342 9 -2427 13 -4632 18 l-2527 7 4 -2044z"/>
<path d="M3478 5875 c-2 -2 -23 -6 -48 -10 -25 -3 -60 -10 -77 -15 -18 -4 -33
-6 -33 -3 0 3 -7 0 -15 -7 -8 -7 -15 -10 -15 -6 0 3 -12 1 -27 -5 -16 -6 -35
-12 -43 -14 -29 -6 -156 -59 -210 -88 -191 -104 -407 -310 -497 -474 -11 -21
-29 -54 -39 -73 -25 -45 -75 -159 -80 -184 -2 -10 -8 -33 -14 -51 -15 -45 -24
-86 -40 -185 -14 -89 -5 -338 15 -425 9 -38 18 -78 20 -88 2 -10 14 -46 26
-80 197 -561 753 -919 1339 -863 60 6 145 18 151 22 3 2 20 6 38 9 99 17 289
102 408 181 47 31 126 96 176 144 l92 88 25 -28 c14 -15 59 -65 100 -110 41
-46 87 -97 103 -113 15 -16 31 -35 35 -41 4 -6 16 -19 28 -28 l20 -18 -2 158
c-8 497 -10 895 -5 952 6 62 -1 213 -13 274 -38 205 -101 361 -211 525 -54 81
-231 271 -252 271 -7 0 -13 4 -13 9 0 14 -135 100 -229 147 -109 54 -241 96
-371 120 -30 6 -337 14 -342 9z m338 -583 c40 -11 83 -28 97 -37 14 -9 29 -16
32 -15 15 5 134 -79 185 -130 154 -154 222 -323 216 -535 -2 -60 -6 -121 -10
-135 -3 -14 -8 -34 -10 -45 -6 -30 -41 -116 -65 -159 -130 -230 -363 -369
-631 -377 -80 -2 -211 22 -262 48 -16 7 -28 11 -28 9 0 -3 -26 9 -57 26 -185
100 -317 266 -369 466 -19 72 -25 255 -10 327 55 273 271 495 551 565 96 23
264 20 361 -8z"/>
<path d="M1025 2756 c-185 -61 -294 -203 -300 -391 -8 -282 253 -498 505 -417
48 16 106 54 129 85 11 15 15 16 22 6 5 -8 9 -24 9 -37 0 -68 78 -98 118 -47
20 25 20 42 22 389 1 394 -1 410 -51 421 -59 13 -86 -14 -90 -88 l-3 -46 -53
49 c-88 81 -205 109 -308 76z m217 -169 c81 -48 130 -128 131 -217 2 -104 -19
-156 -86 -220 -129 -125 -340 -67 -402 111 -31 86 -8 207 52 275 22 25 91 70
119 77 49 12 143 -1 186 -26z"/>
<path d="M1750 2748 c-27 -29 -25 -73 5 -136 14 -29 25 -54 25 -58 0 -3 11
-29 24 -57 47 -100 218 -492 226 -519 6 -20 0 -46 -23 -104 -35 -87 -87 -149
-132 -159 -77 -16 -111 -55 -93 -107 14 -39 58 -58 108 -47 139 31 198 105
299 369 48 129 155 412 188 500 13 36 40 109 60 162 45 123 39 162 -28 173
-29 5 -40 1 -62 -21 -15 -15 -27 -32 -27 -38 0 -6 -27 -83 -61 -171 -33 -88
-69 -185 -80 -215 -41 -117 -57 -155 -65 -151 -5 2 -20 29 -33 60 -12 31 -33
79 -45 106 -13 28 -56 128 -96 223 -41 95 -82 181 -92 192 -25 27 -72 26 -98
-2z"/>
<path d="M2676 2754 c-9 -8 -17 -18 -17 -22 -6 -37 -3 -733 3 -751 10 -29 36
-50 60 -51 29 0 67 22 74 44 4 12 8 131 9 266 1 233 2 247 23 292 28 57 64 82
118 81 53 0 98 -31 126 -86 24 -49 29 -108 28 -370 -1 -176 -1 -177 24 -202
31 -31 70 -32 100 -2 23 23 23 26 23 263 1 188 4 248 16 281 31 83 94 127 170
117 47 -6 62 -16 84 -58 22 -43 23 -60 26 -338 l3 -247 24 -20 c33 -27 63 -26
95 2 l27 22 -1 241 c0 240 -5 304 -22 337 -5 9 -7 17 -4 17 11 0 -35 80 -67
115 -17 20 -49 46 -72 57 -50 26 -153 32 -192 12 -14 -8 -33 -14 -40 -14 -8 0
-14 -4 -14 -10 0 -5 -5 -10 -11 -10 -6 0 -27 -15 -47 -34 l-36 -35 -31 34
c-49 51 -110 78 -180 79 -64 1 -106 -19 -152 -72 l-21 -25 -15 35 c-25 60 -79
85 -111 52z"/>
<path d="M4180 2742 c-80 -32 -174 -121 -213 -202 -139 -286 70 -623 374 -606
80 5 165 40 207 87 32 37 41 36 38 -1 -1 -17 6 -44 16 -60 21 -36 63 -40 99
-11 l24 19 2 377 3 376 -25 25 c-42 41 -98 27 -111 -28 -4 -18 -8 -44 -10 -58
-1 -14 -2 -26 -3 -28 -1 -1 -16 15 -35 36 -87 96 -235 126 -366 74z m250 -147
c48 -25 86 -66 115 -124 90 -179 -44 -398 -237 -386 -162 10 -270 167 -233
336 17 78 93 161 168 185 53 17 143 12 187 -11z"/>
<path d="M5007 2757 c-9 -6 -20 -23 -25 -37 -4 -14 -8 -186 -7 -383 l2 -357
23 -25 c13 -14 31 -25 41 -25 31 0 68 22 76 44 3 12 7 109 8 216 1 178 7 248
23 275 4 6 7 16 8 22 1 7 16 30 33 52 76 96 220 101 267 9 25 -48 26 -62 29
-322 l2 -249 27 -24 c32 -27 69 -25 99 6 19 18 20 34 20 273 0 202 -4 265 -16
309 -34 114 -105 188 -205 214 -86 23 -158 4 -237 -60 l-52 -43 -11 37 c-6 20
-17 44 -24 54 -17 22 -60 30 -81 14z"/>
<path d="M6174 2759 c-83 -15 -118 -35 -199 -114 -129 -127 -157 -333 -70
-502 27 -51 103 -129 155 -157 159 -87 332 -62 458 67 56 58 66 104 28 142
-37 36 -78 27 -128 -30 -67 -76 -169 -101 -258 -62 -40 17 -110 74 -110 90 0
6 -6 18 -14 26 -7 9 -16 28 -20 43 l-6 26 264 1 c197 0 270 3 285 13 60 37 45
190 -27 298 -81 120 -223 183 -358 159z m123 -154 c44 -10 105 -65 128 -114
10 -23 16 -44 13 -47 -4 -4 -335 -8 -411 -5 -17 1 -17 4 4 41 59 104 156 150
266 125z"/>
<path d="M7430 1325 c0 -8 4 -15 10 -15 5 0 7 7 4 15 -4 8 -8 15 -10 15 -2 0
-4 -7 -4 -15z"/>
<path d="M7430 1282 c0 -12 4 -22 9 -22 10 0 9 26 -2 36 -4 4 -7 -2 -7 -14z"/>
<path d="M7430 1239 c0 -5 5 -7 10 -4 6 3 10 8 10 11 0 2 -4 4 -10 4 -5 0 -10
-5 -10 -11z"/>
<path d="M7430 1186 c0 -20 4 -35 8 -32 9 5 8 53 -1 63 -4 3 -7 -10 -7 -31z"/>
<path d="M7430 1125 c0 -8 2 -15 4 -15 2 0 6 7 10 15 3 8 1 15 -4 15 -6 0 -10
-7 -10 -15z"/>
<path d="M7430 1065 c0 -8 2 -15 4 -15 2 0 6 7 10 15 3 8 1 15 -4 15 -6 0 -10
-7 -10 -15z"/>
<path d="M7423 1022 c-9 -15 -8 -19 3 -19 8 0 14 9 14 19 0 10 -1 18 -3 18 -1
0 -7 -8 -14 -18z"/>
<path d="M7190 1008 c0 -5 33 -7 73 -7 76 2 68 6 -21 11 -28 2 -52 0 -52 -4z"/>
<path d="M7348 1003 c7 -3 16 -2 19 1 4 3 -2 6 -13 5 -11 0 -14 -3 -6 -6z"/>
</g>
</svg>
